<svg xmlns="http://www.w3.org/2000/svg" viewBox="0 0 128 128" fill="none" shape-rendering="auto" aria-hidden="true" width="512" height="512"><!-- Generated by DiceBear (https://www.dicebear.com) --><metadata xmlns:rdf="http://www.w3.org/1999/02/22-rdf-syntax-ns#" xmlns:xsi="http://www.w3.org/2001/XMLSchema-instance" xmlns:dc="http://purl.org/dc/elements/1.1/" xmlns:dcterms="http://purl.org/dc/terms/"><rdf:RDF><rdf:Description><dc:title>Croodles - Doodle your face</dc:title><dc:creator>vijay verma</dc:creator><dc:source xsi:type="dcterms:URI">https://www.figma.com/community/file/966199982810283152</dc:source><dcterms:license xsi:type="dcterms:URI">https://creativecommons.org/licenses/by/4.0/</dcterms:license><dc:rights>Remix of “Croodles - Doodle your face” (https://www.figma.com/community/file/966199982810283152) by “vijay verma”, licensed under “CC BY 4.0” (https://creativecommons.org/licenses/by/4.0/)</dc:rights></rdf:Description></rdf:RDF></metadata><defs><g id="eyes-variant09-91142c3e"><path d="M20.7 16.1c1.6.8 6 1.7 11.2 1.3 4.5-.4 6.5-1.5 7.8-2.9m33-1c2.1 1.9 5.9 2.3 8.3 2.3 2.3.1 5 0 7.1-.4" stroke="#000000" stroke-width="3" stroke-linecap="round" stroke-linejoin="round"/><path d="m1.5 17 13.7 7.5m30.5 3.8a32 32 0 0 1 20.5-1.8m28.2-2.4c2.5-1.3 10.6-7.7 13.1-9.6M15.6 25c-.3 3.8-1.7 15.7 0 17.7 2.6 3 27.8-1 29.5-1.5s2-8.8-.5-15.4c-2.2-5.5-20.8-3.1-28.4-1.8" stroke="#000000" stroke-width="3" stroke-linecap="round" stroke-linejoin="round"/><path d="m17 30.4 2.8-5.4c-.8 3.3-3 11-2.8 12 .3 1.2 5.7-12.6 6.3-12.6.6.1-4.5 16-4.5 17s6-17 6.9-17S21.5 40 22 41s5.4-16 6.2-16.9-4.3 18.2-3.4 18.1 6.1-21 6.9-19c.7 2-4.9 21.2-3 19.5s5.4-21 6.8-19.5-3.6 20-2.4 19.5S37.8 25 38.4 25s-1 17.1-.5 17.1 3.3-14 3.7-15.1c.3-1.2 1-.5 1 3.4-.1 3-1.3 9-1.6 11l3-7.6m24.3-2.3 2.8-7c-.8 3.3-2.3 10-2 10.9.2 1.2 5-11.5 5.5-11.4S71 37 71 38s5-14 5.9-14-3.6 14.8-3 15.7 4.8-15.3 5.6-16.2-4.3 18.2-3.4 18.1 6.1-21 6.9-19c.7 2-5.1 20.7-3.2 19 2-1.6 5.6-20.5 7-19s-3.6 20-2.4 19.6c1.3-.6 4.6-17.6 5.2-17.6s-1 17-.5 17 2.7-12.7 3-13.9c.4-1.1 1.3-.5 1.2 3.3 0 3.1-.8 7.9-1.1 9.9l3-7.6" stroke="#000000" stroke-width="3" stroke-linecap="round" stroke-linejoin="round"/><path d="M68 23.3c6-2.7 22.2-1 25.2 0 3.8 1.1 3.6 14.7 3.3 18s-22.1.2-26.8 0c-3.7-.1-3-12.7-2.1-17.6" stroke="#000000" stroke-width="3" stroke-linecap="round" stroke-linejoin="round"/></g><g id="nose-variant04-91142c3e"><path d="M12.8 11.5c1.8 16 7.4 10.4 9.8 19.3 2 7-9.2 7.7-12.1 5.4" stroke="#000000" stroke-width="3" stroke-linecap="round" stroke-linejoin="round"/></g><g id="mouth-variant04-91142c3e"><path d="M31.5 9.4c-7.2 0-14-1-17-1.9 1 2.6 6.4 8.3 17 8.3 12 0 16.5-5.5 18.3-8.3-6 1.8-11 2-18.3 2" stroke="#000000" stroke-width="3" stroke-linecap="round" stroke-linejoin="round"/></g><clipPath id="clip-91142c3e"><rect width="128" height="128" rx="0" ry="0"/></clipPath></defs><g clip-path="url(#clip-91142c3e)"><rect width="128" height="128" fill="#ffffff"/><use transform="translate(9.5 5.5)" href="#eyes-variant09-91142c3e"/><use transform="translate(47.5 46.5)" href="#nose-variant04-91142c3e"/><use transform="translate(32.5 93.5)" href="#mouth-variant04-91142c3e"/></g></svg>